<svg xmlns="http://www.w3.org/2000/svg" viewBox="0 0 167.91 146.69">
	<path d="M1429.91,509.24a22.42,22.42,0,0,0-.23-44.84h-.41l-6.48.09-1-6.4a33.69,33.69,0,0,0-65.71-4.46l-2.16,7.27-7.23-2.27a25.08,25.08,0,0,0-7.53-1.15,25.88,25.88,0,0,0,0,51.75h.26a7.46,7.46,0,1,1,.16,14.93h-.42a40.8,40.8,0,0,1,0-81.6,40,40,0,0,1,12,1.83l-2.24,7.12-7.15-2.13a48.62,48.62,0,0,1,94.77,6.4l-7.37,1.16-.11-7.46h.63a37.35,37.35,0,0,1,.38,74.69,7.46,7.46,0,0,1-.15-14.93Z" transform="translate(-1298.76 -414.35)"/><path d="M1354.19,470.42s6.35,3.34,14.36,11.14,11.68,17,.06,35.13S1325.9,561,1325.9,561h32.24s11.05-11.39,17.63-20,12.37-15.75,14.83-26.17c3-12.6.6-19.8-5.61-28.63s-23-15.85-23-15.85Z" transform="translate(-1298.76 -414.35)"/><path d="M1366.24,470.42l7,3.1s10.92,5.89,16.26,14.33,7.08,19.69,4.81,28.32c-6.49,24.7-27.48,44.85-27.48,44.85H1400s9.31-10.22,15.19-27.88-2.34-33.89-4.85-38.31c-10-17.57-36.2-24.43-36.2-24.43Z" transform="translate(-1298.76 -414.35)"/>
</svg>