<?xml version="1.0" encoding="UTF-8"?>
<svg xmlns="http://www.w3.org/2000/svg" width="18" height="19" viewBox="0 0 18 19">
    <path id="形状_1897" class="cls-1" style="fill: #fff; fill-rule: evenodd;" d="M1613,23.181a8.075,8.075,0,0,1,1.19.087,0.437,0.437,0,0,1,.34.327,3.633,3.633,0,0,0,4.52,2.52,0.316,0.316,0,0,1,.11-0.016,0.447,0.447,0,0,1,.33.161,8.649,8.649,0,0,1,1.29,2.185,0.444,0.444,0,0,1-.13.488,3.57,3.57,0,0,0,.01,5.146,0.444,0.444,0,0,1,.12.48,8.523,8.523,0,0,1-1.19,2.055,0.451,0.451,0,0,1-.36.185,0.317,0.317,0,0,1-.12-0.02,3.661,3.661,0,0,0-1.08-.161,3.615,3.615,0,0,0-3.54,2.791,0.408,0.408,0,0,1-.32.335,8.683,8.683,0,0,1-1.18.079,7.9,7.9,0,0,1-1.26-.1,0.415,0.415,0,0,1-.34-0.343,3.6,3.6,0,0,0-3.53-2.764,3.52,3.52,0,0,0-1.03.15,0.716,0.716,0,0,1-.1.008,0.444,0.444,0,0,1-.33-0.161,8.464,8.464,0,0,1-1.17-2.039,0.432,0.432,0,0,1,.12-0.484,3.578,3.578,0,0,0,0-5.181,0.455,0.455,0,0,1-.13-0.484,8.547,8.547,0,0,1,1.26-2.15,0.43,0.43,0,0,1,.33-0.15,0.539,0.539,0,0,1,.13.016,3.688,3.688,0,0,0,.92.118,3.627,3.627,0,0,0,3.49-2.646,0.453,0.453,0,0,1,.35-0.335,9.03,9.03,0,0,1,1.3-.1M1613,22a9.762,9.762,0,0,0-1.48.114,1.639,1.639,0,0,0-1.32,1.193,2.431,2.431,0,0,1-2.34,1.772,2.493,2.493,0,0,1-.61-0.079,1.724,1.724,0,0,0-.43-0.055,1.632,1.632,0,0,0-1.27.595,9.715,9.715,0,0,0-1.44,2.453,1.616,1.616,0,0,0,.41,1.768,2.394,2.394,0,0,1,0,3.48,1.615,1.615,0,0,0-.41,1.768,9.586,9.586,0,0,0,1.35,2.331,1.619,1.619,0,0,0,1.72.555,2.312,2.312,0,0,1,.68-0.1,2.414,2.414,0,0,1,2.36,1.854,1.628,1.628,0,0,0,1.33,1.24,9.348,9.348,0,0,0,1.44.11,10.093,10.093,0,0,0,1.34-.091,1.593,1.593,0,0,0,1.33-1.244,2.418,2.418,0,0,1,2.37-1.87,2.484,2.484,0,0,1,.72.11,1.689,1.689,0,0,0,.48.071,1.663,1.663,0,0,0,1.31-.646,9.729,9.729,0,0,0,1.35-2.342,1.618,1.618,0,0,0-.4-1.76,2.411,2.411,0,0,1,0-3.457,1.618,1.618,0,0,0,.4-1.76,9.694,9.694,0,0,0-1.47-2.5,1.635,1.635,0,0,0-1.71-.535,2.339,2.339,0,0,1-.68.1,2.438,2.438,0,0,1-2.35-1.787,1.616,1.616,0,0,0-1.32-1.193A9.287,9.287,0,0,0,1613,22h0Zm0,0,0,5.906a3.595,3.595,0,1,1-3.64,3.595,3.621,3.621,0,0,1,3.64-3.594m0-1.181a4.776,4.776,0,1,0,4.84,4.776,4.81,4.81,0,0,0-4.84-4.776h0Zm0,0" transform="translate(-1604 -22)" />
</svg>
