<?xml version="1.0" encoding="UTF-8"?>
<svg viewBox="0 0 277.36 97.48"
     style="width: 67px;display: inline-block;vertical-align: sub;position: relative;top: 2px;"
     version="1.1" xmlns="http://www.w3.org/2000/svg" xmlns:xlink="http://www.w3.org/1999/xlink"
>
    <defs>
        <style>.cls-1{fill:#fff;stroke:#fff;stroke-miterlimit:10;}</style></defs>
    <path class="cls-1" d="M222.68,553.7l-2.88-1.92a17.66,17.66,0,0,0-5.28-1.44q-1.92,1.44-17.28,4.8a6,6,0,0,0-2.4-1.44h-3.36l-1,1.92a26.54,26.54,0,0,0-1.92,7.2q0,5.76.48,12a27.36,27.36,0,0,0,1.44,4.8,38.7,38.7,0,0,0,3.36,6.24q2.4,0,24-7.2l1-2.88v-3.36q1-1.92,5.28-11.52a22.25,22.25,0,0,1,.48-4.32Zm-12.48,9.6a65.77,65.77,0,0,1-4.32,8.16,32.86,32.86,0,0,1-6.72,2.4v-8.64q1-.48,10.56-4.32l.48-.48a.42.42,0,0,1,.48.48A7.9,7.9,0,0,1,210.2,563.3Z" transform="translate(-137.2 -542.37)"/><path class="cls-1" d="M209.94,597.38a16.56,16.56,0,0,1-1.05-2.4c-2.11-1.6-4-3.2-5.8-4.8a29.27,29.27,0,0,1-5.27-.48q-2.65,1.44-15.3,3.36a1.57,1.57,0,0,1-1.05-.48,58.08,58.08,0,0,0-4.22-6.24,22.27,22.27,0,0,0-2.63-1h-3.7l-2.11,1v3.36a32.66,32.66,0,0,1,2.64,4.8q-1.57,2.88-2.64,5.28l-2.1,10.56q0,15.36,1.58,20.64a26,26,0,0,0,2.63,3.84,25.32,25.32,0,0,0,5.8-1.92A121.14,121.14,0,0,0,190.43,631a1.57,1.57,0,0,1,1.06.48c1,2.23,2.11,4.63,3.16,7.2a42.84,42.84,0,0,0,10.55-2.4,15,15,0,0,0,3.69-3.84,63.49,63.49,0,0,0,1.58-11.52Q210.47,599.78,209.94,597.38ZM195.18,625.7c-.35,0-1.24-.64-2.64-1.92q-7.9,1-16.34,1.92a86.58,86.58,0,0,0,.52-9.12,47.85,47.85,0,0,0,9.5-1q2.1-.48,4.74-1a16.69,16.69,0,0,0,2.11-2.4v-1.92a19.73,19.73,0,0,0-2.64-2.88,53.17,53.17,0,0,0-6.85.48,31.21,31.21,0,0,0-5.8,1.44V601.7a112.28,112.28,0,0,1,14.76-4.32l.53-.48a6,6,0,0,0,1.58,1,6.17,6.17,0,0,1,.53,2.88Z" transform="translate(-137.2 -542.37)"/><path class="cls-1" d="M181.88,573.38a10.81,10.81,0,0,0-1.92-3.84l-1.92-1h-3.36l-2.88,1q-.48,0,0-6.72l7.68-2.88a25.17,25.17,0,0,0,4.32-2.88q.48,0,0-1l-2.4-2.4a31.38,31.38,0,0,1-3.36-1.92,131,131,0,0,1-16.8,7.2q-.48-1,2.88-5.28a27,27,0,0,0,.48-5.28,31.33,31.33,0,0,0-2.88-3.36,3.26,3.26,0,0,0-2.4-1h-.48a7.52,7.52,0,0,1-1.92,1.44,79.94,79.94,0,0,1-3.36,7.68,63.79,63.79,0,0,0-2.88,13.44q.48,1.44,1,1.44a38.14,38.14,0,0,0,5.76-4.8,15.73,15.73,0,0,1,1.92,2.4,14.1,14.1,0,0,0,3.36.48q.48,0-2.4,8.64-3.84,1.92-7.2,3.84a105.94,105.94,0,0,1-13.44,3.84,5.19,5.19,0,0,0-1.92,2.4q.48,2.4,1,5.28l3.84,2.88a34,34,0,0,1,4.32,1.44q6.24-2.4,7.2-2.4-5.28,11.52-10.08,23.52,6.72-6.72,13.44-14.4a121.52,121.52,0,0,0,7.2-14.88q10.56-5.28,17.76-9.6A10.64,10.64,0,0,0,181.88,573.38Z" transform="translate(-137.2 -542.37)"/><path class="cls-1" d="M252,614.11q2.46,0,33.39-7.27,1-2.15,5.4-6a91.88,91.88,0,0,0,6.38-9.84,28,28,0,0,0,.49-5.14,18.15,18.15,0,0,0-2.45-2.57,7.21,7.21,0,0,0-1.48-1.71q-1.47-.42-10.31-2.14a6.17,6.17,0,0,0,1-3q1-.86,9.82-3a10.51,10.51,0,0,0,4.41-2.56,7.06,7.06,0,0,0-.49-2.57l-3.92-2.57c-.31,0-2.48.51-6.47,1.49,0-.11.08-.21.11-.32s0-.17.05-.25.05-.45.05-.45l.1-.57.19-.93,6.46-2.82a11.21,11.21,0,0,0-.49-4.28c-.64-.54-2.48-.83-5.51-.85,0-.2-.06-.4-.07-.6v0a1.82,1.82,0,0,0,.19-.67,16.58,16.58,0,0,0,4.9-1.71,15.13,15.13,0,0,0,1.48-3.42,6.71,6.71,0,0,0-2-2.57,17.78,17.78,0,0,1-3.73-1.3,4.71,4.71,0,0,0-.93-1.41,3.52,3.52,0,0,0-.95-.86,3.6,3.6,0,0,0-1.87-1.29,3.54,3.54,0,0,0-3.91,1.91l-.3,3.1c0,.09-.05.19-.09.28l-6.87,2.57a9.58,9.58,0,0,0,1.47,4.7,7.85,7.85,0,0,0,4.42,1.29,7,7,0,0,0-.49,2.56,25.46,25.46,0,0,0-5.89,2.57,25.91,25.91,0,0,0,1.47,3.85,30.61,30.61,0,0,0,3.44,1.71,3.81,3.81,0,0,1-1,2.14,28.08,28.08,0,0,1-4.91.43l-1,.86a8.26,8.26,0,0,0,.49,3,13.88,13.88,0,0,0,3.93,3.85,10.55,10.55,0,0,1-1.47,2.57q-7.36.86-14.24,2.14a17.25,17.25,0,0,1-.49-3.85q3.92-1.71,7.85-3a9.3,9.3,0,0,0,1-3.85,5.49,5.49,0,0,0-1.48-2.14c-.59,0-2.75.23-6.46.69a2.83,2.83,0,0,0,.15-.59l0-.25c0-.19,0-.45,0-.45l0-.58,0-.17a30.91,30.91,0,0,1,3.77-.79,9.89,9.89,0,0,1,1.47-2.56,7.27,7.27,0,0,0-.49-2.57,2.92,2.92,0,0,1-1.47-1.29,27.4,27.4,0,0,0-3.47-.95,1.38,1.38,0,0,1,0-.35q-.1-.39-.18-.81s0-.07,0-.1a49.25,49.25,0,0,0,5.64-2.06,18.21,18.21,0,0,1,1.47-2.14,7.1,7.1,0,0,0,.49-2.57,2.89,2.89,0,0,0-1.47-.86,41.91,41.91,0,0,0-5.8-.42A3.82,3.82,0,0,0,260,547.9a2.47,2.47,0,0,0-.54-.46l0-.08a1.83,1.83,0,0,0-.5-.27,3.69,3.69,0,0,0-1.94-1.07,3.53,3.53,0,0,0-3.7,2.28v2.47c-.09.15-.17.3-.26.44-3.27.86-6.55,1.58-9.82,2.14-.33.58-.33,1.86,0,3.85l2,3.43q6.38,0,6.87.85c-.33.58-2.94,1.71-7.85,3.43.32,1.14.65,2.28,1,3.42a13.29,13.29,0,0,0,3.43,2.14H251a4.31,4.31,0,0,1,.49,2.14q-3.93.85-8.35,2.14a2.7,2.7,0,0,0-1,2.14,10.5,10.5,0,0,1,1.47,2.56,19.75,19.75,0,0,1,3,2.14,21,21,0,0,0,5.89-.85c.65,1.14,1.31,2.28,2,3.42a94,94,0,0,0-10.81,3,12.45,12.45,0,0,0,2,4.28,14.47,14.47,0,0,0,2.45,1.71H252q19.64-4.7,34.86-7.7a4.26,4.26,0,0,0-.49,2.14q-3.44,6-7.86,12.41-6.37.85-29.95,7.27a1.5,1.5,0,0,1-1,.43c.32,1.14.65,2.29,1,3.42A8.15,8.15,0,0,0,252,614.11Z" transform="translate(-137.2 -542.37)"/><path class="cls-1" d="M238.75,615.82a7.72,7.72,0,0,0-2-1.28h-.49c-.66,1.43-1.31,2.85-2,4.28a89.88,89.88,0,0,1-.5,9.41c1.64,1.71,3.11,3.27,4.42,4.7a12.81,12.81,0,0,0,3-1.28c1.3-2.28,2-3.71,2-4.28a59.76,59.76,0,0,1-2.45-8.13C240.06,618.11,239.41,617,238.75,615.82Z" transform="translate(-137.2 -542.37)"/><path class="cls-1" d="M272.14,611.11a11.84,11.84,0,0,1-2.94,2.57,17.39,17.39,0,0,0-.5,3.85,20.34,20.34,0,0,0,3.44,3.85,31.17,31.17,0,0,0,5.4,3,11.89,11.89,0,0,0,2.95-2.57,64.51,64.51,0,0,1,3.93-10.27,48.21,48.21,0,0,1-5.9,2.14,26.17,26.17,0,0,1-5.89-2.57Z" transform="translate(-137.2 -542.37)"/><path class="cls-1" d="M274.11,597.42a12.56,12.56,0,0,0,.49-3.42,2.35,2.35,0,0,0-1-1.71,12.55,12.55,0,0,0-3.43-.43h-.49a127.64,127.64,0,0,1-15.22,3.42v3.43c.65.85,1.47,1.85,2.45,3q3,0,15.22-3A7.55,7.55,0,0,0,274.11,597.42Z" transform="translate(-137.2 -542.37)"/><path class="cls-1" d="M314.37,604.27l-6.88-.86H307a86.22,86.22,0,0,0-11.29,1.71q-3,2.58-3.44,4.71.48.87,22.1,5.13h3.92a29.76,29.76,0,0,0-1-7.27Z" transform="translate(-137.2 -542.37)"/><path class="cls-1" d="M312.4,624.38c-.66-.57-3.76-1.57-9.33-3q-8.35-3.42-16.2-7.27h-.49q7.37,6,12.77,11.12a34.73,34.73,0,0,1-6.88,3q-4.41.85-18.66,0a1.19,1.19,0,0,1-.49-.86,1.46,1.46,0,0,0-1,.43,68.24,68.24,0,0,1-9.82-3.42,75.1,75.1,0,0,1-6.87-6.85,5.31,5.31,0,0,0-3.44-.85l-2.45,2.14a22.87,22.87,0,0,0,4.91,8.55q1,1.71,6.87,6c3,1.14,6.05,2.42,9.33,3.85q4.9.85,10.31,2.14h12.76a38.82,38.82,0,0,1,7.86-1.71q3.43-1.27,12.77-7.7a12.56,12.56,0,0,0-.49-3.42A20.33,20.33,0,0,0,312.4,624.38Z" transform="translate(-137.2 -542.37)"/><path class="cls-1" d="M356.84,563.3a33.58,33.58,0,0,0,4.8,2.4q7.68-1,14.88-1.92a69.47,69.47,0,0,0,10.08-2.88l1-1.92a38,38,0,0,0-.48-6.24l-3.84-2.88a37.25,37.25,0,0,0-4.8-1.92q-6.72,1.92-24.48,4.32a5.92,5.92,0,0,0-1,3.36,25.46,25.46,0,0,1,1.44,5.28Z" transform="translate(-137.2 -542.37)"/><path class="cls-1" d="M408.42,580.86a9.82,9.82,0,0,1-5.06-1.55c-1.09-.84-1.9-1.14-2.42-.92q-2.82,2.54-14.54,3.81c-5.9.64-14.78,2.43-19.14,3.18-5.37.65-11.69,1.18-14,1.59-2.79.49-6.35,1-8.74,1.4-4,.3-6.37.26-8.17.3-2.86.07-5.31-.16-6.75,2.42a3.53,3.53,0,0,0,.35,4c1.17,1.75,1.8,4.55,2.41,6,.51,1.19,1.22,3.48,4.74,2.56s11.61-2.16,16.69-2.81c1.32-.1,2.6-.23,3.86-.36q-4,7.08-8.45,14.17a43.68,43.68,0,0,0-3.36,4.8q-3.36,2.88-6.24,5.28a24.5,24.5,0,0,0,.48,4.8,10.82,10.82,0,0,1,1.92,2.88,26,26,0,0,0,3.84,2.4q18.72-2.88,37.44-6.24h3.84a11.19,11.19,0,0,0,2.4,4.8,18.36,18.36,0,0,0,4.32.48,20,20,0,0,0,3.84-1.44q1-1,2.88-7.2a29.76,29.76,0,0,0-1-7.2,36,36,0,0,0-3.84-6.72q-3.36-3.84-7.2-7.68a31.38,31.38,0,0,1-3.36-1.92,15.78,15.78,0,0,0-3.84-.48q-1.44,2.88-2.4,5.28v2.88q3.36,4.8,3.84,6.72a176.1,176.1,0,0,0-20.16,4.32,2.82,2.82,0,0,1-2.4-1.44q7.53-10.63,15.47-20.84l1.06-.13c3.91-.63,8.35-1.24,12-1.73q12.45-1.66,15.91-.28c2.31.93,3.82-.23,4.82-.39a11.57,11.57,0,0,0,3.67-2.19c.58-.5.88-2,.9-4.46Q414.27,582.08,408.42,580.86Z" transform="translate(-137.2 -542.37)"/>
</svg>
